<svg id="Jax" xmlns="http://www.w3.org/2000/svg" viewBox="0 0 833 659">
  <title>Jax</title>
  <path id="Base" d="M785.12,503.8c3.38-3.87,5.2-10.21,7.08-15.21,2.57-6.85,5.44-16,5.68-23.65-3.82,5-8.22,12.75-13.84,14.76,2.34-7.32,6.06-12.44,6.81-20.57,1-10.52,0-20.71-6.55-28.63-8.39-10.15-19.17,9.52-23.44,16.75-3.16,5.36-9.23,13.77-9.83,21.47-.34-4.22-2.15-8.24-5.8-9.11-3.16-.75-7.74.61-10.73,1.54-1.86.57-3,2.22-4.77,2.63-6.8-6.3-.55-14.23,2.68-20.21,3.82-7.07.68-12.95-3.38-18.41-1.18-1.59-2.47-4-4.25-4.25-3.26-.4-7.31,4.72-9.82,6.93-2.94,2.58-6.69,5.11-8.48,9-1,2.27-.76,7.46-3.48,7.76-1.16-5.44,1.22-9.24-5.11-7.78-3.86.89-6.06,3.16-8.34,6.88-.89,1.46-2.39,4.94-4.25,4.87-7.3-.25-5.11-23.69-5.2-29.39s-1.45-13.61-3.67-18.45c-3.11-6.8-10.23-8.09-15.57-10.63-3.66-1.74-6.81-4.91-10.65-5.89-5.59-1.43-4-4.1-7.74-8.66-8.35,3.6-9,28.08-4.69,35.72-3.37-3.5-7.56-13.15-12-14.88-7.24-2.84-9.13,12.31-10.12,17.64-.92,4.91-.36,9.62-5.24,10.47-4.57.8-8.51-4.27-11.27-8.12-3.43-4.78-2.48-12.62-7.75-15.66a16.13,16.13,0,0,0-8.48-1.6L832.86,0H12L279.67,377c-.05.89-.09,1.71-.14,2.44-.41,7.25-2.17,19.19,1.25,27.61-2.55-4.28-6.5-7.6-10.67-6.67-3.6.81-7.56,4.56-10.11,7-1.59,1.56-1.86,3.85-3.48,5.19-10.21-3.21-8-14.72-7.86-22.66.18-9.38-6.09-14-13.08-17.7-2-1.07-4.63-3-6.55-2.33-3.53,1.23-5,8.67-6.37,12.28-1.63,4.2-4.12,8.76-3.9,13.79.13,2.92,3.14,8.25.53,9.94-4-5.15-3.6-10.36-9.28-5.62-3.45,2.89-4.5,6.4-4.87,11.47-.14,2,.16,6.42-1.78,7.29-7.55,3.42-17.6-22.4-20.69-28.36-3-5.8-8.61-13.62-13.39-17.6-6.74-5.59-14.66-3.35-21.42-3.32-4.63,0-9.5-1.74-13.92-.83-6.43,1.32-6.17-2.33-12.41-5.22-6.61,8,5.56,34.16,13.95,40-5.27-2-14.58-10-20-9.64-8.85.66-2.83,17.6-1.05,23.72,1.64,5.64,4.68,10.31.15,13.68-4.22,3.15-10.89-.2-15.71-2.86-6-3.31-9.14-12.05-16.09-12.59-6.47-.51-15.88,5.6-18.81,11.45-3.23,6.43-.15,11.56-.61,18.71-.13,2.17-.33,5.94-2.1,6.79-2.2,1.07-4.93-2.3-7.47-2.34-1.74,2.48-1,5.72-3.33,7.78-1.25,1.1-2.79,1.23-3.74,2.29-3.34-2.37-6.14-6.24-9.84-7.29s-6.93.95-9.34,3c-3.26,2.8-6.11,6.48-9.18,9.54s-4.31,1.24-8.3,2.22c-1,10.84,11.15,12.31,17.44,15.35-4.37,2.25-7.72,1-10.32,6.27-3.13,6.37-.91,10.83-1.54,18-.4,4.56-3,7.75-6.33,10.19a2.25,2.25,0,0,1,2.09.45C17.21,525,2.55,535.73,8,543.44c3.42,1.29,8.21-5.16,10.11-9.87-1.26,4.46-2.56,9.06-6,11.1a20.68,20.68,0,0,1-6.35,2.52c-2.09.43-4.6-.7-6.07,1.35,1.71,3.93,9.67,5.07,11.87,5.55,7.94,1.72,16,2.33,22.45-2a45.71,45.71,0,0,0,16.38-19.87C48.83,537,48.62,542.75,48,547.84a106.62,106.62,0,0,0,.68,30.41c1.32,8.11,2.95,14.65,8,21.4,1.58,2.11,6.54,9.14,8.58,9.33-3-8.41-2.45-15.73-.7-23.41.74-3.25,2-10.61,5.08-12.11,1.26,2.22,1.39,4.72,2,7.1,1.61,6.71,3.36,13.65,6.22,20.05,2.65,5.95,7.46,15,13.48,17.1a77.28,77.28,0,0,1,1.9-13.33c2.23-11.25,9.68-2.89,17.36,1.87,5.11,3.17,10.12,5.6,15.51,6,5.92.39,10.14-2.39,15-4.85,1.44-.72,4.63-1.37,5.5-3,1.25-2.43-.5-5.87.77-8.37,6.25,10.13,9.82,22,12.28,33.3,1.39,6.39,2,13.19,4.11,19.48,2.59-4.23,4.09-9.43,6-14.2,4.09-10.21,8.67-20.13,12.21-30.71,2.4-7.15,5.69-14.77,1.34-23.21,8.69,6.76,15.91,12,23.24,21.08,2.07,2.57,6.22,9.34,8.93,10.5,5.93,2.53,11.44-10.62,14.66-14.71,1.84-2.34,2.09-3.23,4.89-4.12,2.39-.76,4.15.46,5.7-2.4,2.46-4.56-2.16-11.46-4-17.3l10.33-1.6c3.25,2.44,6.38,5.31,9.54,7.5,6.85,4.74,8.66-3.6,8-10.21l36.45-5.64c7,12.66,9.49,27.8,12.31,41.29,2.13,10.21,2.87,22.59,7.15,32.46a54.19,54.19,0,0,0,6.14-13c3.49-9.86,7.4-19.63,9.91-30.06,2.63-11,2.83-22.93,1.72-35.06,0-.43-.1-.89-.17-1.38l161.27-25c.58,3,1.5,7.14,2.64,7.82a30,30,0,0,1,2.4-8.6l2-.31,9.3,1.73c-.26,1.85-.44,3.71-.52,5.56-.24,5.54,0,14.24,3.92,18.11a66.5,66.5,0,0,1,6.73-9.42c6.16-7.72,8.76,1.46,13,8,2.79,4.35,5.78,8.09,9.89,10.4,4.51,2.53,8.93,2,13.73,2,1.42,0,4.19.71,5.53-.24,1.94-1.37,1.9-4.65,3.88-6.06,1,10.06-.85,20.41-3.36,30-1.41,5.38-3.62,10.77-4.4,16.37,3.7-2.24,6.92-5.63,10.29-8.54,7.22-6.22,14.72-12,21.66-18.74,4.69-4.54,10.27-9.09,10.15-17.15,4.2,8.43,7.85,15.12,10.06,24.82.62,2.74,1.24,9.46,2.92,11.36,3.69,4.17,13.18-3.75,17.32-5.64,2.37-1.09,2.92-1.67,5.47-1.29,2.18.32,3.09,1.92,5.43.33,5.31-3.62,1.14-16.28,6.11-19.73,5.43,3.46,7.57,11.28,10.86,17,3.6,6.31,8.39.34,10.44-5,1.21-3.14,1.08-11.57,3.84-12.21,4.09-1,4.49,6.63,7,8.21,3.06-2.25,3.15-8.11,7.23-8.3,6-.28,11.55,11.56,12.39,17.49,2,13.71-2.61,27.9-6.06,40.64-2.32,8.57-6.58,18.27-7.08,27.39a47.49,47.49,0,0,0,9.93-7.55c6.61-6.18,13.52-12.13,19.58-19.12,6.38-7.36,11.22-16.37,15.1-26,1.07-2.66,1.91-7.48,4.66-8.25,4.48-1.26,9.38,9.07,11.54-.25.78-3.39.29-7.59,2.18-10.53,2.95-4.55,7.08-3.27,10.86-1.64s6.83,4.7,9.9,7.93c2.46,2.6,3.57,3.49,6.75,1.32,8.08-5.52,9.83-23.86,9.8-33.6,0-8.17-1.19-16.42-1.57-24.58-.25-5.27-.83-9.72-2.84-14.38-2.33-5.4-7.7-8.51-9.64-13.85C779.83,506.13,783.27,505.92,785.12,503.8ZM347.2,532.61a9.63,9.63,0,0,1-.13-2.62c.61-6.28,5.49-7,10.18-7.21,4.87-.2,9.41,1.5,14.22,3.35,3.88,1.49,5.47,1.88,7.56-2s2.16-9.6,1.08-15.58L436,518.88Zm134-53.84c5.58,4.31,11.68,7.81,18.46,7a40.79,40.79,0,0,0,20.69-8.92c-3.06,3-5.49,7.31-8,11a89.42,89.42,0,0,0-10,19.29L370.89,482.73c-1.43-2.78-3-5.52-4.58-8.24l109.24-.72A31.41,31.41,0,0,0,481.21,478.77Z" style="fill: #231f20"/>
  <path id="Sclera" d="M357.52,303.77c-14.48-39.41,2.14-83.28,38.12-104.9,20.56-12.36,48.52-18.92,83.46-4.13,35.89,15.2,50.57,40.82,55.75,64.79,8.93,41.28-12.31,83.66-51.4,99.66-19.16,7.84-43.6,10.25-72.79-2.11C380.2,344.18,364.88,323.8,357.52,303.77Z" style="fill: #fff"/>
  <path id="EyeShadow" d="M409,362.74c25.21,10.67,49.67,12.09,72.71,4.21a3.13,3.13,0,1,0-2-5.93c-21.54,7.37-44.5,6-68.24-4-54.63-23.13-60.84-70.31-59.68-96.38a105,105,0,0,1,2.48-19.25,3.13,3.13,0,0,0-6.07-1.56,110.23,110.23,0,0,0-2.66,20.53C344.24,288,350.85,338.13,409,362.74Z" style="fill: #58595b"/>
</svg>
